<mxfile host="Electron" modified="2024-06-12T03:12:31.990Z" agent="Mozilla/5.0 (Windows NT 10.0; Win64; x64) AppleWebKit/537.36 (KHTML, like Gecko) draw.io/22.0.3 Chrome/114.0.5735.289 Electron/25.8.4 Safari/537.36" etag="YI6yWRX1x_7BVVbA8aQd" version="22.0.3" type="device">
  <diagram name="Page-1" id="cXSQKKOMePguXqx7XG5u">
    <mxGraphModel dx="1182" dy="683" grid="1" gridSize="10" guides="1" tooltips="1" connect="1" arrows="1" fold="1" page="1" pageScale="1" pageWidth="850" pageHeight="1100" math="0" shadow="0">
      <root>
        <mxCell id="0" />
        <mxCell id="1" parent="0" />
        <mxCell id="UMxZVM7NaWgkXdFx8mG6-10" style="edgeStyle=orthogonalEdgeStyle;rounded=0;orthogonalLoop=1;jettySize=auto;html=1;entryX=0;entryY=0.5;entryDx=0;entryDy=0;" edge="1" parent="1" source="VH9nwzgeH6Tg8-Pe4hsY-1" target="VH9nwzgeH6Tg8-Pe4hsY-3">
          <mxGeometry relative="1" as="geometry" />
        </mxCell>
        <mxCell id="VH9nwzgeH6Tg8-Pe4hsY-1" value="" style="ellipse;whiteSpace=wrap;html=1;aspect=fixed;fillColor=#000000;" parent="1" vertex="1">
          <mxGeometry x="240" y="150" width="70" height="70" as="geometry" />
        </mxCell>
        <mxCell id="VH9nwzgeH6Tg8-Pe4hsY-2" value="" style="ellipse;whiteSpace=wrap;html=1;aspect=fixed;fillColor=#000000;" parent="1" vertex="1">
          <mxGeometry x="50" y="310" width="70" height="70" as="geometry" />
        </mxCell>
        <mxCell id="VH9nwzgeH6Tg8-Pe4hsY-3" value="" style="ellipse;whiteSpace=wrap;html=1;aspect=fixed;fillColor=#000000;" parent="1" vertex="1">
          <mxGeometry x="630" y="150" width="70" height="70" as="geometry" />
        </mxCell>
        <mxCell id="VH9nwzgeH6Tg8-Pe4hsY-4" value="" style="ellipse;whiteSpace=wrap;html=1;aspect=fixed;fillColor=#000000;" parent="1" vertex="1">
          <mxGeometry x="630" y="470" width="70" height="70" as="geometry" />
        </mxCell>
        <mxCell id="VH9nwzgeH6Tg8-Pe4hsY-5" value="&lt;font color=&quot;#ffffff&quot; style=&quot;font-size: 36px;&quot;&gt;0&lt;/font&gt;" style="ellipse;whiteSpace=wrap;html=1;aspect=fixed;fillColor=#000000;" parent="1" vertex="1">
          <mxGeometry x="240" y="470" width="70" height="70" as="geometry" />
        </mxCell>
        <mxCell id="VH9nwzgeH6Tg8-Pe4hsY-17" value="&lt;font style=&quot;font-size: 36px;&quot;&gt;t&lt;/font&gt;" style="text;html=1;strokeColor=none;fillColor=none;align=center;verticalAlign=middle;whiteSpace=wrap;rounded=0;" parent="1" vertex="1">
          <mxGeometry x="245" y="110" width="60" height="30" as="geometry" />
        </mxCell>
        <mxCell id="VH9nwzgeH6Tg8-Pe4hsY-18" value="&lt;font style=&quot;font-size: 36px;&quot;&gt;x&lt;/font&gt;" style="text;html=1;strokeColor=none;fillColor=none;align=center;verticalAlign=middle;whiteSpace=wrap;rounded=0;" parent="1" vertex="1">
          <mxGeometry x="635" y="110" width="60" height="30" as="geometry" />
        </mxCell>
        <mxCell id="VH9nwzgeH6Tg8-Pe4hsY-19" value="&lt;font style=&quot;font-size: 36px;&quot;&gt;s&lt;/font&gt;" style="text;html=1;strokeColor=none;fillColor=none;align=center;verticalAlign=middle;whiteSpace=wrap;rounded=0;" parent="1" vertex="1">
          <mxGeometry y="330" width="60" height="30" as="geometry" />
        </mxCell>
        <mxCell id="VH9nwzgeH6Tg8-Pe4hsY-20" value="&lt;font style=&quot;font-size: 36px;&quot;&gt;y&lt;/font&gt;" style="text;html=1;strokeColor=none;fillColor=none;align=center;verticalAlign=middle;whiteSpace=wrap;rounded=0;" parent="1" vertex="1">
          <mxGeometry x="245" y="550" width="60" height="30" as="geometry" />
        </mxCell>
        <mxCell id="VH9nwzgeH6Tg8-Pe4hsY-21" value="&lt;font style=&quot;font-size: 36px;&quot;&gt;z&lt;/font&gt;" style="text;html=1;strokeColor=none;fillColor=none;align=center;verticalAlign=middle;whiteSpace=wrap;rounded=0;" parent="1" vertex="1">
          <mxGeometry x="635" y="550" width="60" height="30" as="geometry" />
        </mxCell>
        <mxCell id="VH9nwzgeH6Tg8-Pe4hsY-32" value="&lt;font style=&quot;font-size: 36px;&quot;&gt;Next Pass&lt;/font&gt;" style="text;html=1;strokeColor=none;fillColor=none;align=center;verticalAlign=middle;whiteSpace=wrap;rounded=0;" parent="1" vertex="1">
          <mxGeometry x="90" y="40" width="310" height="30" as="geometry" />
        </mxCell>
        <mxCell id="UMxZVM7NaWgkXdFx8mG6-12" value="" style="endArrow=classic;html=1;rounded=0;exitX=0.84;exitY=0.052;exitDx=0;exitDy=0;exitPerimeter=0;entryX=0.031;entryY=0.767;entryDx=0;entryDy=0;entryPerimeter=0;" edge="1" parent="1" source="VH9nwzgeH6Tg8-Pe4hsY-2" target="VH9nwzgeH6Tg8-Pe4hsY-1">
          <mxGeometry width="50" height="50" relative="1" as="geometry">
            <mxPoint x="120" y="310" as="sourcePoint" />
            <mxPoint x="170" y="260" as="targetPoint" />
          </mxGeometry>
        </mxCell>
        <mxCell id="UMxZVM7NaWgkXdFx8mG6-13" value="" style="endArrow=classic;html=1;rounded=0;exitX=0.019;exitY=0.243;exitDx=0;exitDy=0;exitPerimeter=0;entryX=1.031;entryY=0.66;entryDx=0;entryDy=0;entryPerimeter=0;strokeColor=#FFD966;strokeWidth=6;" edge="1" parent="1" source="VH9nwzgeH6Tg8-Pe4hsY-4" target="VH9nwzgeH6Tg8-Pe4hsY-2">
          <mxGeometry width="50" height="50" relative="1" as="geometry">
            <mxPoint x="400" y="400" as="sourcePoint" />
            <mxPoint x="450" y="350" as="targetPoint" />
          </mxGeometry>
        </mxCell>
        <mxCell id="UMxZVM7NaWgkXdFx8mG6-14" value="" style="endArrow=classic;html=1;rounded=0;exitX=0.793;exitY=0.981;exitDx=0;exitDy=0;exitPerimeter=0;" edge="1" parent="1" source="VH9nwzgeH6Tg8-Pe4hsY-2" target="VH9nwzgeH6Tg8-Pe4hsY-5">
          <mxGeometry width="50" height="50" relative="1" as="geometry">
            <mxPoint x="100" y="500" as="sourcePoint" />
            <mxPoint x="150" y="450" as="targetPoint" />
          </mxGeometry>
        </mxCell>
        <mxCell id="UMxZVM7NaWgkXdFx8mG6-15" value="" style="endArrow=classic;html=1;rounded=0;exitX=1.031;exitY=0.6;exitDx=0;exitDy=0;exitPerimeter=0;entryX=-0.029;entryY=0.612;entryDx=0;entryDy=0;entryPerimeter=0;strokeColor=#FFD966;strokeWidth=6;" edge="1" parent="1" source="VH9nwzgeH6Tg8-Pe4hsY-5" target="VH9nwzgeH6Tg8-Pe4hsY-4">
          <mxGeometry width="50" height="50" relative="1" as="geometry">
            <mxPoint x="420" y="570" as="sourcePoint" />
            <mxPoint x="470" y="520" as="targetPoint" />
          </mxGeometry>
        </mxCell>
        <mxCell id="UMxZVM7NaWgkXdFx8mG6-16" value="" style="endArrow=classic;html=1;rounded=0;exitX=1;exitY=0;exitDx=0;exitDy=0;entryX=0.983;entryY=0.624;entryDx=0;entryDy=0;entryPerimeter=0;" edge="1" parent="1" source="VH9nwzgeH6Tg8-Pe4hsY-4" target="VH9nwzgeH6Tg8-Pe4hsY-3">
          <mxGeometry width="50" height="50" relative="1" as="geometry">
            <mxPoint x="730" y="360" as="sourcePoint" />
            <mxPoint x="780" y="310" as="targetPoint" />
            <Array as="points">
              <mxPoint x="750" y="340" />
            </Array>
          </mxGeometry>
        </mxCell>
        <mxCell id="UMxZVM7NaWgkXdFx8mG6-17" value="" style="endArrow=classic;html=1;rounded=0;exitX=0.15;exitY=0.957;exitDx=0;exitDy=0;exitPerimeter=0;entryX=0.233;entryY=0.029;entryDx=0;entryDy=0;entryPerimeter=0;fillColor=#fff2cc;strokeColor=#d6b656;strokeWidth=6;" edge="1" parent="1" source="VH9nwzgeH6Tg8-Pe4hsY-3" target="VH9nwzgeH6Tg8-Pe4hsY-4">
          <mxGeometry width="50" height="50" relative="1" as="geometry">
            <mxPoint x="630" y="330" as="sourcePoint" />
            <mxPoint x="680" y="280" as="targetPoint" />
            <Array as="points">
              <mxPoint x="590" y="340" />
            </Array>
          </mxGeometry>
        </mxCell>
        <mxCell id="UMxZVM7NaWgkXdFx8mG6-18" value="" style="endArrow=classic;html=1;rounded=0;entryX=0;entryY=0.714;entryDx=0;entryDy=0;entryPerimeter=0;strokeColor=#FFD966;strokeWidth=6;" edge="1" parent="1" source="VH9nwzgeH6Tg8-Pe4hsY-5" target="VH9nwzgeH6Tg8-Pe4hsY-3">
          <mxGeometry width="50" height="50" relative="1" as="geometry">
            <mxPoint x="390" y="430" as="sourcePoint" />
            <mxPoint x="440" y="380" as="targetPoint" />
          </mxGeometry>
        </mxCell>
        <mxCell id="UMxZVM7NaWgkXdFx8mG6-19" value="" style="endArrow=classic;html=1;rounded=0;exitX=0.829;exitY=0.029;exitDx=0;exitDy=0;exitPerimeter=0;entryX=1;entryY=1;entryDx=0;entryDy=0;strokeColor=#FFD966;strokeWidth=5;" edge="1" parent="1" source="VH9nwzgeH6Tg8-Pe4hsY-5" target="VH9nwzgeH6Tg8-Pe4hsY-1">
          <mxGeometry width="50" height="50" relative="1" as="geometry">
            <mxPoint x="290" y="410" as="sourcePoint" />
            <mxPoint x="340" y="360" as="targetPoint" />
            <Array as="points">
              <mxPoint x="320" y="340" />
            </Array>
          </mxGeometry>
        </mxCell>
        <mxCell id="UMxZVM7NaWgkXdFx8mG6-20" value="" style="endArrow=classic;html=1;rounded=0;exitX=0.269;exitY=1.029;exitDx=0;exitDy=0;exitPerimeter=0;entryX=0.281;entryY=-0.019;entryDx=0;entryDy=0;entryPerimeter=0;" edge="1" parent="1" source="VH9nwzgeH6Tg8-Pe4hsY-1" target="VH9nwzgeH6Tg8-Pe4hsY-5">
          <mxGeometry width="50" height="50" relative="1" as="geometry">
            <mxPoint x="200" y="360" as="sourcePoint" />
            <mxPoint x="250" y="310" as="targetPoint" />
            <Array as="points">
              <mxPoint x="230" y="340" />
            </Array>
          </mxGeometry>
        </mxCell>
        <mxCell id="UMxZVM7NaWgkXdFx8mG6-21" value="&lt;font style=&quot;font-size: 24px;&quot;&gt;6&lt;/font&gt;" style="text;html=1;strokeColor=none;fillColor=none;align=center;verticalAlign=middle;whiteSpace=wrap;rounded=0;" vertex="1" parent="1">
          <mxGeometry x="440" y="150" width="60" height="30" as="geometry" />
        </mxCell>
        <mxCell id="UMxZVM7NaWgkXdFx8mG6-22" value="&lt;font color=&quot;#ffffff&quot; style=&quot;font-size: 36px;&quot;&gt;1&lt;/font&gt;" style="text;html=1;strokeColor=none;fillColor=none;align=center;verticalAlign=middle;whiteSpace=wrap;rounded=0;" vertex="1" parent="1">
          <mxGeometry x="245" y="170" width="60" height="30" as="geometry" />
        </mxCell>
        <mxCell id="UMxZVM7NaWgkXdFx8mG6-23" value="&lt;font style=&quot;font-size: 24px;&quot;&gt;3&lt;/font&gt;" style="text;html=1;strokeColor=none;fillColor=none;align=center;verticalAlign=middle;whiteSpace=wrap;rounded=0;" vertex="1" parent="1">
          <mxGeometry x="130" y="230" width="60" height="30" as="geometry" />
        </mxCell>
        <mxCell id="UMxZVM7NaWgkXdFx8mG6-24" value="&lt;font style=&quot;font-size: 24px;&quot;&gt;2&lt;/font&gt;" style="text;html=1;strokeColor=none;fillColor=none;align=center;verticalAlign=middle;whiteSpace=wrap;rounded=0;" vertex="1" parent="1">
          <mxGeometry x="190" y="300" width="60" height="30" as="geometry" />
        </mxCell>
        <mxCell id="UMxZVM7NaWgkXdFx8mG6-25" value="&lt;font style=&quot;font-size: 24px;&quot;&gt;1&lt;/font&gt;" style="text;html=1;strokeColor=none;fillColor=none;align=center;verticalAlign=middle;whiteSpace=wrap;rounded=0;" vertex="1" parent="1">
          <mxGeometry x="305" y="300" width="60" height="30" as="geometry" />
        </mxCell>
        <mxCell id="UMxZVM7NaWgkXdFx8mG6-26" value="&lt;font style=&quot;font-size: 24px;&quot;&gt;4&lt;/font&gt;" style="text;html=1;strokeColor=none;fillColor=none;align=center;verticalAlign=middle;whiteSpace=wrap;rounded=0;" vertex="1" parent="1">
          <mxGeometry x="430" y="310" width="60" height="30" as="geometry" />
        </mxCell>
        <mxCell id="UMxZVM7NaWgkXdFx8mG6-27" value="&lt;font style=&quot;font-size: 24px;&quot;&gt;3&lt;/font&gt;" style="text;html=1;strokeColor=none;fillColor=none;align=center;verticalAlign=middle;whiteSpace=wrap;rounded=0;" vertex="1" parent="1">
          <mxGeometry x="440" y="420" width="60" height="30" as="geometry" />
        </mxCell>
        <mxCell id="UMxZVM7NaWgkXdFx8mG6-28" value="&lt;font style=&quot;font-size: 24px;&quot;&gt;6&lt;/font&gt;" style="text;html=1;strokeColor=none;fillColor=none;align=center;verticalAlign=middle;whiteSpace=wrap;rounded=0;" vertex="1" parent="1">
          <mxGeometry x="430" y="510" width="60" height="30" as="geometry" />
        </mxCell>
        <mxCell id="UMxZVM7NaWgkXdFx8mG6-29" value="&lt;font style=&quot;font-size: 24px;&quot;&gt;2&lt;/font&gt;" style="text;html=1;strokeColor=none;fillColor=none;align=center;verticalAlign=middle;whiteSpace=wrap;rounded=0;" vertex="1" parent="1">
          <mxGeometry x="560" y="350" width="60" height="30" as="geometry" />
        </mxCell>
        <mxCell id="UMxZVM7NaWgkXdFx8mG6-30" value="&lt;font style=&quot;font-size: 24px;&quot;&gt;7&lt;/font&gt;" style="text;html=1;strokeColor=none;fillColor=none;align=center;verticalAlign=middle;whiteSpace=wrap;rounded=0;" vertex="1" parent="1">
          <mxGeometry x="720" y="350" width="60" height="30" as="geometry" />
        </mxCell>
        <mxCell id="UMxZVM7NaWgkXdFx8mG6-31" value="&lt;font style=&quot;font-size: 24px;&quot;&gt;5&lt;/font&gt;" style="text;html=1;strokeColor=none;fillColor=none;align=center;verticalAlign=middle;whiteSpace=wrap;rounded=0;" vertex="1" parent="1">
          <mxGeometry x="130" y="430" width="60" height="30" as="geometry" />
        </mxCell>
        <mxCell id="UMxZVM7NaWgkXdFx8mG6-32" value="&lt;font color=&quot;#ffffff&quot; style=&quot;font-size: 36px;&quot;&gt;9&lt;/font&gt;" style="text;html=1;strokeColor=none;fillColor=none;align=center;verticalAlign=middle;whiteSpace=wrap;rounded=0;" vertex="1" parent="1">
          <mxGeometry x="55" y="330" width="60" height="30" as="geometry" />
        </mxCell>
        <mxCell id="UMxZVM7NaWgkXdFx8mG6-33" value="&lt;font color=&quot;#ffffff&quot; style=&quot;font-size: 36px;&quot;&gt;4&lt;/font&gt;" style="text;html=1;strokeColor=none;fillColor=none;align=center;verticalAlign=middle;whiteSpace=wrap;rounded=0;" vertex="1" parent="1">
          <mxGeometry x="635" y="170" width="60" height="30" as="geometry" />
        </mxCell>
        <mxCell id="UMxZVM7NaWgkXdFx8mG6-34" value="&lt;font color=&quot;#ffffff&quot; style=&quot;font-size: 36px;&quot;&gt;6&lt;/font&gt;" style="text;html=1;strokeColor=none;fillColor=none;align=center;verticalAlign=middle;whiteSpace=wrap;rounded=0;" vertex="1" parent="1">
          <mxGeometry x="635" y="490" width="60" height="30" as="geometry" />
        </mxCell>
      </root>
    </mxGraphModel>
  </diagram>
</mxfile>
